#!OML:ASF E:\VariousWalksJay\Project 1\Capture day 1\Session 1\Actor2.ASF
:FULLY-SPECIFIED
:DEGREES
1163
root -18.2298 16.887 45.7612 5.87075 -47.0923 -4.52634
lowerback -3.50933 -3.93085 5.59528
upperback 4.19976 -5.59944 -0.860957
thorax 5.73081 -2.51819 -4.46525
lowerneck -6.69653 -7.00504 -7.04544
upperneck 6.03999 -9.82469 12.6182
head 3.88431 -4.5504 4.41281
rclavicle -2.6339e-014 1.86858e-014
rhumerus -56.238 26.4765 -89.4302
rradius 79.7708
rwrist 17.6918
rhand -23.1205 11.7475
rfingers 7.12502
rthumb 3.32674 -18.2063
lclavicle -2.6339e-014 1.86858e-014
lhumerus -16.2272 -29.971 93.7527
lradius 64.4392
lwrist 44.3429
lhand -38.8151 4.18426
lfingers 7.12502
lthumb -11.8254 33.8304
rfemur -14.4343 -0.537 26.8381
rtibia 33.1205
rfoot -20.0987 -0.712091
rtoes 2.7713
lfemur -9.80878 5.46928 -17.7693
ltibia 27.8595
lfoot -19.2776 1.33411
ltoes -23.0405
1164
root -18.2349 16.8882 45.7832 5.83694 -47.1822 -4.47231
lowerback -3.6488 -3.93379 5.57984
upperback 4.1321 -5.60919 -0.835529
thorax 5.74159 -2.52453 -4.43923
lowerneck -6.69635 -7.008 -7.04797
upperneck 6.01992 -9.82213 12.5775
head 3.8759 -4.55112 4.40111
rclavicle -4.02539e-014 1.82882e-014
rhumerus -56.3446 26.5007 -89.2904
rradius 79.5827
rwrist 17.7893
rhand -23.2401 11.9106
rfingers 7.12502
rthumb 3.2112 -18.0449
lclavicle -4.02539e-014 1.82882e-014
lhumerus -16.6667 -29.9591 94.0225
lradius 64.6235
lwrist 44.3886
lhand -38.9235 4.16987
lfingers 7.12502
lthumb -11.9299 33.81
rfemur -14.3787 -0.520467 26.7604
rtibia 33.1196
rfoot -20.1378 -0.810434
rtoes 2.08604
lfemur -9.67489 5.49591 -17.8664
ltibia 27.7266
lfoot -19.2929 1.41705
ltoes -23.2676
1165
root -18.2386 16.8892 45.8045 5.81754 -47.2623 -4.43544
lowerback -3.77818 -3.94043 5.58313
upperback 4.07087 -5.6248 -0.810366
thorax 5.75114 -2.53293 -4.42372
lowerneck -6.70985 -7.00778 -7.04339
upperneck 5.99653 -9.81531 12.5396
head 3.86818 -4.54909 4.38904
rclavicle 4.84538e-014 -1.98785e-015
rhumerus -56.4324 26.5266 -89.1538
rradius 79.3831
rwrist 17.8756
rhand -23.3401 12.0281
rfingers 7.12502
rthumb 3.11466 -17.9289
lclavicle 4.84538e-014 -1.98785e-015
lhumerus -17.0911 -29.9498 94.2774
lradius 64.8149
lwrist 44.4302
lhand -39.0175 4.17763
lfingers 7.12502
lthumb -12.0206 33.8124
rfemur -14.3294 -0.535325 26.6912
rtibia 33.1153
rfoot -20.1751 -0.873956
rtoes 1.48802
lfemur -9.56098 5.52531 -17.952
ltibia 27.6145
lfoot -19.3099 1.4894
ltoes -23.468
1166
root -18.2421 16.8902 45.8245 5.80312 -47.3626 -4.39578
lowerback -3.91092 -3.94081 5.57504
upperback 4.01943 -5.63174 -0.788996
thorax 5.77463 -2.53672 -4.40619
lowerneck -6.73552 -7.00533 -7.03404
upperneck 5.96248 -9.8058 12.516
head 3.8596 -4.54498 4.38049
rclavicle 3.0911e-014 2.38542e-015
rhumerus -56.4907 26.5501 -89.0214
rradius 79.1661
rwrist 17.9363
rhand -23.4406 12.1449
rfingers 7.12502
rthumb 3.0176 -17.8135
lclavicle 3.0911e-014 2.38542e-015
lhumerus -17.4943 -29.9492 94.5107
lradius 65.0134
lwrist 44.4766
lhand -39.0918 4.20307
lfingers 7.12502
lthumb -12.0922 33.8337
rfemur -14.2907 -0.502248 26.6181
rtibia 33.1073
rfoot -20.2112 -0.920995
rtoes 1.12547
lfemur -9.46717 5.57681 -18.0381
ltibia 27.5215
lfoot -19.3318 1.55668
ltoes -23.6888
1167
root -18.2449 16.8907 45.8438 5.80372 -47.4615 -4.37927
lowerback -4.04731 -3.93986 5.59005
upperback 3.98455 -5.63924 -0.772389
thorax 5.81528 -2.53873 -4.40769
lowerneck -6.76688 -6.99909 -7.02121
upperneck 5.90688 -9.7917 12.5172
head 3.84626 -4.53802 4.37941
rclavicle -4.9895e-014 2.8625e-014
rhumerus -56.5215 26.5654 -88.8965
rradius 78.9427
rwrist 17.9603
rhand -23.5103 12.2254
rfingers 7.12502
rthumb 2.95033 -17.7339
lclavicle -4.9895e-014 2.8625e-014
lhumerus -17.8745 -29.9667 94.7177
lradius 65.2199
lwrist 44.5373
lhand -39.1385 4.24519
lfingers 7.12502
lthumb -12.1372 33.8731
rfemur -14.2499 -0.476313 26.5606
rtibia 33.0972
rfoot -20.2493 -0.948542
rtoes 0.841947
lfemur -9.37802 5.64389 -18.1052
ltibia 27.442
lfoot -19.3593 1.60732
ltoes -23.9101
1168
root -18.2473 16.8911 45.8625 5.80352 -47.5538 -4.3672
lowerback -4.16935 -3.92892 5.61923
upperback 3.94975 -5.63339 -0.758771
thorax 5.84776 -2.53381 -4.41799
lowerneck -6.79407 -7.00319 -7.01909
upperneck 5.84993 -9.79155 12.5278
head 3.83424 -4.53799 4.38197
rclavicle 3.18055e-014 1.27222e-014
rhumerus -56.5603 26.5467 -88.7695
rradius 78.7301
rwrist 17.9331
rhand -23.5375 12.2716
rfingers 7.12502
rthumb 2.92398 -17.6881
lclavicle 3.18055e-014 1.27222e-014
lhumerus -18.2651 -30.0316 94.942
lradius 65.4344
lwrist 44.6198
lhand -39.164 4.28936
lfingers 7.12502
lthumb -12.1618 33.9158
rfemur -14.2077 -0.456743 26.5079
rtibia 33.0882
rfoot -20.2892 -0.978237
rtoes 0.562349
lfemur -9.28965 5.71272 -18.1655
ltibia 27.3697
lfoot -19.3871 1.63921
ltoes -24.1149
1169
root -18.2494 16.8912 45.8805 5.80914 -47.6458 -4.36393
lowerback -4.27798 -3.917 5.65254
upperback 3.91438 -5.62571 -0.745833
thorax 5.87174 -2.52818 -4.42992
lowerneck -6.81426 -7.00786 -7.01872
upperneck 5.78441 -9.793 12.5528
head 3.81953 -4.53878 4.38944
rclavicle -5.92378e-014 1.59028e-014
rhumerus -56.5979 26.5216 -88.6514
rradius 78.5026
rwrist 17.9068
rhand -23.5536 12.3045
rfingers 7.12502
rthumb 2.90848 -17.6554
lclavicle -5.92378e-014 1.59028e-014
lhumerus -18.6687 -30.1164 95.169
lradius 65.6627
lwrist 44.7277
lhand -39.1647 4.34739
lfingers 7.12502
lthumb -12.1624 33.9738
rfemur -14.1648 -0.413231 26.4607
rtibia 33.0818
rfoot -20.3351 -0.998169
rtoes 0.438285
lfemur -9.20258 5.78601 -18.217
ltibia 27.3016
lfoot -19.4159 1.66375
ltoes -24.3126
1170
root -18.2515 16.8911 45.8976 5.813 -47.7365 -4.35348
lowerback -4.37465 -3.90991 5.67109
upperback 3.87411 -5.62241 -0.734512
thorax 5.88425 -2.52589 -4.43436
lowerneck -6.82484 -7.00445 -7.01942
upperneck 5.71425 -9.78486 12.592
head 3.80169 -4.53486 4.40259
rclavicle -3.17559e-014 -1.07344e-014
rhumerus -56.6432 26.5073 -88.5512
rradius 78.2688
rwrist 17.8825
rhand -23.5733 12.3498
rfingers 7.12502
rthumb 2.88941 -17.6103
lclavicle -3.17559e-014 -1.07344e-014
lhumerus -19.0927 -30.2142 95.3968
lradius 65.9057
lwrist 44.8573
lhand -39.1584 4.38953
lfingers 7.12502
lthumb -12.1564 34.0163
rfemur -14.1288 -0.358074 26.4105
rtibia 33.0782
rfoot -20.3838 -1.01973
rtoes 0.375954
lfemur -9.11827 5.85843 -18.2713
ltibia 27.2352
lfoot -19.4463 1.67835
ltoes -24.4903
1171
root -18.2537 16.8911 45.9143 5.82147 -47.8362 -4.34338
lowerback -4.45901 -3.8995 5.68439
upperback 3.82496 -5.61317 -0.722875
thorax 5.88142 -2.5217 -4.43357
lowerneck -6.82629 -6.99857 -7.01971
upperneck 5.64938 -9.77439 12.6313
head 3.78364 -4.53002 4.4161
rclavicle 9.69572e-014 -9.93923e-015
rhumerus -56.7038 26.4962 -88.4636
rradius 78.0282
rwrist 17.8691
rhand -23.5782 12.3758
rfingers 7.12502
rthumb 2.88475 -17.5844
lclavicle 9.69572e-014 -9.93923e-015
lhumerus -19.5482 -30.334 95.6431
lradius 66.1636
lwrist 45.0019
lhand -39.1474 4.42595
lfingers 7.12502
lthumb -12.1458 34.0534
rfemur -14.0981 -0.28642 26.3598
rtibia 33.0772
rfoot -20.4332 -1.03283
rtoes 0.387367
lfemur -9.03933 5.93553 -18.3254
ltibia 27.1696
lfoot -19.477 1.69787
ltoes -24.6795
1172
root -18.2558 16.8911 45.9307 5.83395 -47.9284 -4.33774
lowerback -4.53273 -3.89523 5.69786
upperback 3.77117 -5.61121 -0.712602
thorax 5.86658 -2.52167 -4.43362
lowerneck -6.82356 -6.98792 -7.00843
upperneck 5.59128 -9.75925 12.6672
head 3.76572 -4.52278 4.42719
rclavicle -1.92324e-014 -4.77083e-015
rhumerus -56.7746 26.4966 -88.3964
rradius 77.7863
rwrist 17.8797
rhand -23.5901 12.4293
rfingers 7.12502
rthumb 2.87322 -17.5311
lclavicle -1.92324e-014 -4.77083e-015
lhumerus -20.0284 -30.4756 95.8942
lradius 66.4335
lwrist 45.1562
lhand -39.1385 4.45022
lfingers 7.12502
lthumb -12.1372 34.0782
rfemur -14.0696 -0.223416 26.3135
rtibia 33.0775
rfoot -20.482 -1.04612
rtoes 0.360459
lfemur -8.96298 6.0051 -18.3755
ltibia 27.1062
lfoot -19.5075 1.71923
ltoes -24.8656
1173
root -18.2577 16.8912 45.9465 5.85228 -48.0188 -4.33552
lowerback -4.59387 -3.89694 5.70578
upperback 3.71144 -5.61579 -0.702308
thorax 5.83796 -2.52582 -4.42962
lowerneck -6.82275 -6.96707 -6.98618
upperneck 5.54808 -9.73214 12.6961
head 3.75045 -4.50928 4.43507
rclavicle -6.72886e-014 1.51076e-014
rhumerus -56.8487 26.516 -88.3501
rradius 77.5292
rwrist 17.9066
rhand -23.5721 12.4454
rfingers 7.12502
rthumb 2.89058 -17.5147
lclavicle -6.72886e-014 1.51076e-014
lhumerus -20.5325 -30.6319 96.1496
lradius 66.7141
lwrist 45.3106
lhand -39.1333 4.4581
lfingers 7.12502
lthumb -12.1322 34.0863
rfemur -14.0462 -0.162246 26.2707
rtibia 33.0784
rfoot -20.5315 -1.05678
rtoes 0.353988
lfemur -8.89386 6.07229 -18.4227
ltibia 27.0459
lfoot -19.5387 1.7444
ltoes -25.0353
1174
root -18.2593 16.8913 45.9613 5.87834 -48.1089 -4.33621
lowerback -4.65491 -3.89311 5.71494
upperback 3.65358 -5.61304 -0.693757
thorax 5.81181 -2.52613 -4.4277
lowerneck -6.82487 -6.94894 -6.97032
upperneck 5.51138 -9.70941 12.7329
head 3.73881 -4.49752 4.44591
rclavicle -6.05299e-014 1.98785e-015
rhumerus -56.9136 26.5258 -88.3071
rradius 77.2645
rwrist 17.9462
rhand -23.57 12.5035
rfingers 7.12502
rthumb 2.89259 -17.4566
lclavicle -6.05299e-014 1.98785e-015
lhumerus -21.0428 -30.8335 96.4132
lradius 66.9981
lwrist 45.4585
lhand -39.1243 4.45464
lfingers 7.12502
lthumb -12.1235 34.0834
rfemur -14.0329 -0.0953934 26.2319
rtibia 33.0813
rfoot -20.5785 -1.07135
rtoes 0.334889
lfemur -8.83634 6.13973 -18.467
ltibia 26.9883
lfoot -19.567 1.76922
ltoes -25.1881
1175
root -18.2606 16.8914 45.9756 5.90431 -48.2021 -4.3332
lowerback -4.71853 -3.88634 5.72239
upperback 3.60115 -5.60641 -0.689822
thorax 5.79305 -2.5241 -4.42989
lowerneck -6.8334 -6.92926 -6.96341
upperneck 5.48053 -9.68562 12.7855
head 3.73116 -4.48449 4.46284
rclavicle 9.30312e-014 -1.23246e-014
rhumerus -56.9671 26.5354 -88.2725
rradius 76.9945
rwrist 17.9842
rhand -23.5461 12.5465
rfingers 7.12502
rthumb 2.91573 -17.4133
lclavicle 9.30312e-014 -1.23246e-014
lhumerus -21.5542 -31.064 96.6764
lradius 67.2838
lwrist 45.5932
lhand -39.0991 4.44245
lfingers 7.12502
lthumb -12.0992 34.0726
rfemur -14.0264 -0.0322389 26.1901
rtibia 33.0871
rfoot -20.6233 -1.07754
rtoes 0.315592
lfemur -8.78495 6.20804 -18.5142
ltibia 26.9332
lfoot -19.5948 1.79699
ltoes -25.3285
1176
root -18.2614 16.8915 45.9891 5.92972 -48.2911 -4.32785
lowerback -4.78376 -3.86947 5.73533
upperback 3.55417 -5.58686 -0.68928
thorax 5.78168 -2.51499 -4.43814
lowerneck -6.85571 -6.91879 -6.9687
upperneck 5.46605 -9.67453 12.8419
head 3.73279 -4.47687 4.48134
rclavicle 2.89232e-014 -2.26615e-014
rhumerus -57.0148 26.5209 -88.2333
rradius 76.7255
rwrist 18.0123
rhand -23.5196 12.5935
rfingers 7.12502
rthumb 2.94132 -17.366
lclavicle 2.89232e-014 -2.26615e-014
lhumerus -22.064 -31.3424 96.9523
lradius 67.5664
lwrist 45.7223
lhand -39.0312 4.44738
lfingers 7.12502
lthumb -12.0338 34.0814
rfemur -14.0234 0.0317763 26.1458
rtibia 33.0978
rfoot -20.6699 -1.07683
rtoes 0.330626
lfemur -8.73851 6.27348 -18.5626
ltibia 26.8788
lfoot -19.6207 1.82531
ltoes -25.4519
